<svg height="53" viewBox="0 0 417 53" fill="none" xmlns="http://www.w3.org/2000/svg">
<path d="M4.87891 36.7178C3.57031 35.9762 2.56706 34.9294 1.86914 33.5771C1.17122 32.2249 0.778646 30.9382 0.691406 29.7168C0.822266 28.6699 1.10579 27.863 1.54199 27.2959C1.93457 26.6852 2.41439 26.2054 2.98145 25.8564C3.5485 25.4639 4.13737 25.1803 4.74805 25.0059C5.35872 24.7878 5.94759 24.6133 6.51465 24.4824L7.49609 24.8096C7.71419 25.0277 7.93229 25.224 8.15039 25.3984C8.41211 25.5729 8.65202 25.7474 8.87012 25.9219C9.30632 25.7474 9.56803 25.4857 9.65527 25.1367C9.78613 24.7878 9.91699 24.4388 10.0479 24.0898C10.1787 23.61 10.3314 23.1302 10.5059 22.6504C10.6803 22.1706 10.8984 21.6908 11.1602 21.2109C11.1165 20.8184 11.1383 20.4694 11.2256 20.1641C11.3128 19.8587 11.4001 19.597 11.4873 19.3789C11.2256 19.1608 11.0293 19.0518 10.8984 19.0518C10.8112 19.0081 10.6367 18.9427 10.375 18.8555C10.2441 18.8555 10.1133 18.8555 9.98242 18.8555C9.85156 18.8118 9.69889 18.7682 9.52441 18.7246C8.87012 18.2448 8.43392 17.8522 8.21582 17.5469C8.04134 17.1979 7.84505 16.849 7.62695 16.5C7.40885 16.151 7.21257 15.8457 7.03809 15.584C6.86361 15.3223 6.66732 15.0824 6.44922 14.8643L5.66406 14.3408L6.05664 13.5557C6.14388 13.4684 6.1875 13.3594 6.1875 13.2285C6.1875 13.054 6.10026 12.8141 5.92578 12.5088C5.79492 11.9417 5.77311 11.5273 5.86035 11.2656L5.99121 10.4805C6.42741 9.91341 6.66732 9.58626 6.71094 9.49902L7.36523 8.84473C8.36849 8.58301 9.39355 8.29948 10.4404 7.99414C11.4873 7.64518 12.5124 7.29622 13.5156 6.94727C14.5189 6.59831 15.5439 6.24935 16.5908 5.90039C17.6377 5.55143 18.6846 5.24609 19.7314 4.98438C20.0804 4.67904 20.4512 4.50456 20.8438 4.46094C21.2799 4.3737 21.6725 4.30827 22.0215 4.26465C22.3268 4.26465 22.6104 4.24284 22.8721 4.19922C23.1338 4.1556 23.3301 4.04655 23.4609 3.87207C24.2025 3.61035 24.9222 3.39225 25.6201 3.21777C26.9287 2.86882 28.6517 2.45443 30.7891 1.97461C32.9264 1.49479 35.3255 1.14583 37.9863 0.927734L39.3604 0.862305C39.6221 0.905924 39.8838 0.927734 40.1455 0.927734C40.4072 0.884115 40.6689 0.862305 40.9307 0.862305C43.1989 0.862305 44.7038 1.56022 45.4453 2.95605C45.8815 3.17415 46.2741 3.45768 46.623 3.80664C46.972 4.11198 47.2992 4.41732 47.6045 4.72266C47.8226 4.94076 48.0189 5.13704 48.1934 5.31152C48.3678 5.44238 48.5205 5.55143 48.6514 5.63867L49.1748 6.16211C49.6546 7.20898 49.7419 8.23405 49.4365 9.2373C49.1748 9.76074 48.8913 10.0661 48.5859 10.1533C48.2806 10.2406 47.9753 10.3278 47.6699 10.415L46.8193 10.873C46.2523 10.8294 45.8161 10.8076 45.5107 10.8076C45.249 10.8076 44.9437 10.8076 44.5947 10.8076C43.2861 10.8076 41.7594 10.8949 40.0146 11.0693C38.3135 11.2002 36.5687 11.4183 34.7803 11.7236C32.9919 11.9854 31.2471 12.3343 29.5459 12.7705C27.8447 13.1631 26.3617 13.5993 25.0967 14.0791C24.7477 14.3408 24.2897 14.5807 23.7227 14.7988C23.5918 14.8424 23.3955 14.9515 23.1338 15.126C23.1774 15.4749 23.1774 15.8239 23.1338 16.1729C23.0902 16.4782 23.0247 16.7835 22.9375 17.0889C22.8939 17.307 22.8503 17.5469 22.8066 17.8086C22.8066 18.0267 22.7848 18.2666 22.7412 18.5283C21.8252 19.6188 21.389 20.9056 21.4326 22.3887L21.1055 23.043C20.931 23.2174 20.7783 23.4792 20.6475 23.8281C20.5602 24.1335 20.5602 24.4606 20.6475 24.8096L20.9092 25.5947C21.7816 25.5075 22.6322 25.4202 23.4609 25.333C24.3333 25.2021 25.2493 25.0713 26.209 24.9404C27.4303 24.7223 28.6517 24.5479 29.873 24.417C31.138 24.2425 32.4466 24.1553 33.7988 24.1553H36.3506L35.7617 24.7441L36.4814 24.8096L36.0889 25.8564C36.3942 25.9873 36.6123 26.0964 36.7432 26.1836C36.9176 26.2272 37.0703 26.2926 37.2012 26.3799L37.6592 27.0342C37.8773 27.165 38.0736 27.3831 38.248 27.6885C38.4225 27.9502 38.5316 28.321 38.5752 28.8008L38.3789 29.4551L35.3037 33.3809L34.9111 33.9043L34.2568 33.708C33.4281 33.6644 32.6429 33.7516 31.9014 33.9697C31.5524 34.057 31.1816 34.166 30.7891 34.2969C30.3965 34.3841 30.0039 34.4277 29.6113 34.4277C28.5645 34.6022 27.6921 34.7549 26.9941 34.8857C26.2962 34.973 25.5983 35.0602 24.9004 35.1475C23.9408 35.3219 23.0029 35.4964 22.0869 35.6709C21.2145 35.8018 20.3857 36.0199 19.6006 36.3252C19.1208 36.3688 18.8372 36.3906 18.75 36.3906C18.6628 36.347 18.5755 36.3252 18.4883 36.3252C18.0521 36.3252 17.6159 36.3906 17.1797 36.5215C16.7435 36.6523 16.3291 36.7832 15.9365 36.9141C15.6748 37.1322 15.5003 37.3721 15.4131 37.6338C15.3258 37.8519 15.2386 38.0918 15.1514 38.3535C15.0641 38.6589 14.9333 38.9642 14.7588 39.2695C14.6279 39.5312 14.4535 39.8148 14.2354 40.1201L14.3008 41.2979C13.9082 41.3851 13.7119 41.4505 13.7119 41.4941C13.7119 41.4941 13.6901 41.4941 13.6465 41.4941C13.6465 41.8431 13.5811 42.1702 13.4502 42.4756C13.363 42.7809 13.2757 43.0645 13.1885 43.3262C13.1012 43.5007 13.0358 43.6533 12.9922 43.7842C12.9486 43.915 12.9268 44.0459 12.9268 44.1768C13.363 44.9619 13.472 45.8561 13.2539 46.8594C13.0794 47.6882 12.7523 48.4297 12.2725 49.084C11.7926 49.6947 11.2256 50.1745 10.5713 50.5234C9.87337 50.6107 9.34993 50.5889 9.00098 50.458C8.69564 50.3271 8.36849 50.1963 8.01953 50.0654C7.80143 49.9782 7.58333 49.9128 7.36523 49.8691C7.14714 49.7819 6.92904 49.7165 6.71094 49.6729L5.92578 49.0186C5.79492 48.7568 5.64225 48.5169 5.46777 48.2988C5.29329 48.0371 5.11882 47.7754 4.94434 47.5137C4.72624 47.2083 4.50814 46.903 4.29004 46.5977C4.07194 46.2923 3.87565 45.9434 3.70117 45.5508C3.39583 44.0241 3.3304 42.7591 3.50488 41.7559C3.72298 40.709 4.00651 39.6839 4.35547 38.6807C4.44271 38.3317 4.52995 38.0046 4.61719 37.6992C4.70443 37.3939 4.79167 37.0667 4.87891 36.7178ZM100.668 43.1953C100.188 44.9401 99.752 46.2705 99.3594 47.1865C99.0104 48.0589 98.4652 48.9749 97.7236 49.9346C97.1566 49.8473 96.764 49.9128 96.5459 50.1309C96.3278 50.349 96.0879 50.5452 95.8262 50.7197C95.4336 50.807 95.1501 50.807 94.9756 50.7197C94.8011 50.6325 94.6484 50.5234 94.5176 50.3926C94.3867 50.3053 94.2122 50.1963 93.9941 50.0654C93.8197 49.9782 93.5361 49.9346 93.1436 49.9346C93.0563 49.5856 92.9473 49.2585 92.8164 48.9531C92.7292 48.6478 92.4456 48.5387 91.9658 48.626C92.0531 48.277 92.0749 47.9935 92.0312 47.7754C91.9876 47.5137 91.9222 47.2956 91.835 47.1211C91.7913 46.903 91.7477 46.7067 91.7041 46.5322C91.6605 46.3141 91.6823 46.0524 91.7695 45.7471C91.5514 45.7471 91.377 45.5944 91.2461 45.2891C91.1152 44.9837 90.9626 44.6784 90.7881 44.373C90.9189 43.5879 91.0498 42.8464 91.1807 42.1484C91.3115 41.4505 91.4642 40.7962 91.6387 40.1855C91.8568 39.5749 92.0312 38.9642 92.1621 38.3535C92.293 37.7428 92.2275 37.1104 91.9658 36.4561C92.1403 36.5869 92.2712 36.5651 92.3584 36.3906C92.4456 36.1725 92.5111 35.9108 92.5547 35.6055C92.5983 35.2565 92.6201 34.9294 92.6201 34.624C92.6201 34.2751 92.5983 33.9915 92.5547 33.7734C92.9909 32.6393 93.3398 31.4834 93.6016 30.3057C93.9069 29.0843 94.1686 27.8848 94.3867 26.707C94.6484 25.5293 94.9102 24.3734 95.1719 23.2393C95.4336 22.1051 95.7826 21.0583 96.2188 20.0986C96.6986 20.0114 97.222 20.0768 97.7891 20.2949C98.3997 20.4694 98.7705 20.7093 98.9014 21.0146C100.035 20.1423 101.039 19.0954 101.911 17.874C102.784 16.609 103.678 15.3877 104.594 14.21C105.51 13.0322 106.513 11.9854 107.604 11.0693C108.738 10.1533 110.155 9.60807 111.856 9.43359C112.729 10.0879 113.688 10.764 114.735 11.4619C115.826 12.1162 116.72 12.9886 117.418 14.0791C117.767 14.2536 118.05 14.4499 118.269 14.668C118.53 14.8424 118.836 15.0387 119.185 15.2568V16.042C119.708 16.5218 120.122 17.0889 120.428 17.7432C120.777 18.3538 121.082 19.0299 121.344 19.7715C121.605 20.4694 121.867 21.1891 122.129 21.9307C122.391 22.6286 122.696 23.3047 123.045 23.959C122.958 24.1771 122.914 24.3734 122.914 24.5479C122.914 24.6787 122.936 24.8314 122.979 25.0059C123.067 25.1803 123.132 25.3548 123.176 25.5293C123.219 25.7038 123.219 25.9437 123.176 26.249C123.045 28.1683 122.412 29.7168 121.278 30.8945C120.188 32.0723 118.857 33.0537 117.287 33.8389C115.717 34.5804 114.037 35.2129 112.249 35.7363C110.461 36.2598 108.847 36.8268 107.407 37.4375C107.407 37.612 107.473 37.6992 107.604 37.6992C107.778 37.6992 107.843 37.8083 107.8 38.0264C108.847 38.6807 109.675 39.2041 110.286 39.5967C110.897 39.9893 111.464 40.3164 111.987 40.5781C112.554 40.8398 113.143 41.0798 113.754 41.2979C114.408 41.4723 115.302 41.6904 116.437 41.9521C117.571 42.2139 118.443 42.432 119.054 42.6064C119.708 42.7373 120.297 42.8682 120.82 42.999C121.344 43.0863 121.867 43.1735 122.391 43.2607C122.958 43.3044 123.743 43.3698 124.746 43.457C125.139 43.8496 125.466 44.3294 125.728 44.8965C126.033 45.4199 126.229 45.9652 126.316 46.5322C126.404 47.0557 126.425 47.5791 126.382 48.1025C126.338 48.5824 126.186 48.9749 125.924 49.2803C125.967 49.4111 126.055 49.4766 126.186 49.4766C126.36 49.4329 126.535 49.4329 126.709 49.4766C126.447 49.651 126.229 49.8691 126.055 50.1309C125.88 50.3926 125.706 50.6543 125.531 50.916C125.357 51.1777 125.16 51.3958 124.942 51.5703C124.724 51.7884 124.419 51.9193 124.026 51.9629C122.674 52.4863 120.973 52.5081 118.923 52.0283C116.873 51.5921 114.277 50.7633 111.137 49.542C109.566 48.9313 108.28 48.4079 107.276 47.9717C106.317 47.4919 105.466 47.0339 104.725 46.5977C104.027 46.1178 103.372 45.6162 102.762 45.0928C102.195 44.5693 101.497 43.9368 100.668 43.1953ZM110.024 20.7529C109.545 21.4508 108.999 22.0833 108.389 22.6504C107.822 23.2174 107.255 23.8063 106.688 24.417C106.164 24.984 105.684 25.6383 105.248 26.3799C104.812 27.0778 104.507 27.9066 104.332 28.8662C105.859 28.6917 107.451 28.2773 109.108 27.623C110.766 26.9251 112.336 26.2708 113.819 25.6602C113.645 24.3079 113.165 23.2174 112.38 22.3887C111.638 21.5599 110.853 21.0146 110.024 20.7529ZM165.836 47.6445C163.742 47.7318 161.888 47.6882 160.274 47.5137C158.704 47.3392 157.156 46.9248 155.629 46.2705C155.542 46.2269 155.454 46.1178 155.367 45.9434C155.28 45.7689 155.193 45.638 155.105 45.5508C154.844 45.4199 154.517 45.3763 154.124 45.4199C153.775 45.4199 153.47 45.3763 153.208 45.2891C152.859 45.1146 152.314 44.7874 151.572 44.3076C150.831 43.7842 150.155 43.3044 149.544 42.8682C148.759 42.2575 148.017 41.6468 147.319 41.0361C146.621 40.4255 146.011 39.7712 145.487 39.0732C145.356 38.8988 145.182 38.8115 144.964 38.8115C144.746 38.7679 144.549 38.7025 144.375 38.6152C143.11 39.4004 142.041 40.3818 141.169 41.5596C140.297 42.7373 139.468 43.9368 138.683 45.1582C137.897 46.3796 137.069 47.5355 136.196 48.626C135.324 49.7165 134.212 50.5452 132.859 51.1123C132.467 51.1123 132.118 51.0469 131.812 50.916C131.507 50.7852 131.224 50.6107 130.962 50.3926C130.7 50.2181 130.438 50.0436 130.177 49.8691C129.915 49.6947 129.632 49.5638 129.326 49.4766C129.326 48.9531 129.217 48.4733 128.999 48.0371C128.825 47.6009 128.628 47.1865 128.41 46.7939C128.236 46.4014 128.105 46.0306 128.018 45.6816C127.93 45.2891 128.018 44.9183 128.279 44.5693C128.018 44.3076 127.625 44.0241 127.102 43.7188C127.363 43.457 127.472 43.2171 127.429 42.999C127.429 42.7809 127.385 42.5628 127.298 42.3447C127.211 42.1266 127.123 41.8867 127.036 41.625C126.993 41.3633 127.058 41.1016 127.232 40.8398C127.451 40.8398 127.712 40.7962 128.018 40.709C127.756 40.36 127.625 40.1637 127.625 40.1201C127.669 40.0329 127.625 39.9238 127.494 39.793C127.407 39.5312 127.451 39.3786 127.625 39.335C127.799 39.2477 127.974 39.1605 128.148 39.0732C128.323 36.9359 128.694 34.9512 129.261 33.1191C129.828 31.2871 130.46 29.5205 131.158 27.8193C131.856 26.1182 132.532 24.3952 133.187 22.6504C133.884 20.9056 134.451 19.0299 134.888 17.0234C135.368 16.5436 135.738 15.9766 136 15.3223C136.305 14.668 136.611 14.0137 136.916 13.3594C137.265 12.7051 137.636 12.0726 138.028 11.4619C138.465 10.8076 139.053 10.2842 139.795 9.8916C140.406 9.93522 140.951 10.1097 141.431 10.415C141.91 10.6768 142.499 10.7858 143.197 10.7422C143.328 10.9603 143.437 11.1784 143.524 11.3965C143.655 11.6146 143.808 11.8327 143.982 12.0508L144.964 11.8545C145.444 12.2471 145.858 12.7487 146.207 13.3594C146.6 13.9264 146.861 14.5371 146.992 15.1914C147.123 15.8457 147.101 16.4782 146.927 17.0889C146.752 17.6559 146.338 18.1139 145.684 18.4629C145.727 18.681 145.727 18.8555 145.684 18.9863C145.684 19.0736 145.662 19.1608 145.618 19.248C145.575 19.3353 145.553 19.4225 145.553 19.5098C145.553 19.597 145.618 19.7279 145.749 19.9023C144.877 20.5566 144.222 21.4727 143.786 22.6504C143.35 23.8281 143.11 24.875 143.066 25.791C143.59 25.2676 144.157 24.766 144.768 24.2861C145.422 23.7627 146.076 23.2611 146.73 22.7812C147.428 22.3014 148.083 21.8434 148.693 21.4072C149.348 20.971 149.937 20.5348 150.46 20.0986C151.899 18.79 153.273 17.7432 154.582 16.958C155.934 16.1292 157.352 15.2132 158.835 14.21C159.184 14.1227 159.446 14.1227 159.62 14.21C159.838 14.2536 160.056 14.319 160.274 14.4062C160.274 14.1445 160.187 13.9919 160.013 13.9482C159.882 13.9046 159.838 13.7301 159.882 13.4248C160.536 13.2503 161.103 13.054 161.583 12.8359C162.063 12.5742 162.586 12.3343 163.153 12.1162C163.546 12.5088 163.917 12.9232 164.266 13.3594C164.615 13.752 165.094 13.9919 165.705 14.0791C165.923 14.5589 166.185 14.9297 166.49 15.1914C166.796 15.4095 167.101 15.6276 167.406 15.8457C167.712 16.0638 167.973 16.3255 168.191 16.6309C168.453 16.9362 168.606 17.416 168.649 18.0703C168.475 18.3757 168.279 18.7028 168.061 19.0518C167.886 19.4007 167.712 19.8151 167.537 20.2949C166.665 21.0801 165.771 21.778 164.854 22.3887C163.982 22.9993 163.088 23.5882 162.172 24.1553C161.256 24.7223 160.318 25.2894 159.358 25.8564C158.399 26.4235 157.417 27.0996 156.414 27.8848C156.196 28.1901 155.912 28.4736 155.563 28.7354C155.258 28.9535 154.931 29.1934 154.582 29.4551C154.233 29.6732 153.906 29.9131 153.601 30.1748C153.295 30.4365 153.055 30.7419 152.881 31.0908C152.75 31.1344 152.619 31.1562 152.488 31.1562C152.357 31.1562 152.227 31.1781 152.096 31.2217C151.965 31.527 151.747 31.7669 151.441 31.9414C151.18 32.1159 151.005 32.3558 150.918 32.6611C151.572 34.057 152.423 35.1257 153.47 35.8672C154.517 36.6087 155.694 37.154 157.003 37.5029C158.312 37.8083 159.729 37.9827 161.256 38.0264C162.783 38.0264 164.375 38.0264 166.032 38.0264C166.207 37.9827 166.272 37.8955 166.229 37.7646C166.229 37.5902 166.338 37.5247 166.556 37.5684C167.603 37.9173 168.41 38.4189 168.977 39.0732C169.544 39.6839 170.22 40.2946 171.005 40.9053C170.918 42.5628 170.416 43.9368 169.5 45.0273C168.584 46.1178 167.363 46.9902 165.836 47.6445ZM195.279 20.4912C195.41 19.8369 195.497 19.3135 195.541 18.9209C195.585 18.4847 195.432 18.0267 195.083 17.5469C195.257 16.849 195.388 16.3037 195.476 15.9111C195.606 15.5186 195.628 14.9733 195.541 14.2754C195.934 13.1413 196.522 12.1816 197.308 11.3965C198.136 10.6113 199.031 9.95703 199.99 9.43359C200.95 8.86654 201.953 8.40853 203 8.05957C204.047 7.66699 205.028 7.33984 205.944 7.07812C205.944 6.90365 205.857 6.81641 205.683 6.81641C205.508 6.81641 205.465 6.70736 205.552 6.48926C207.907 6.05306 210.263 5.42057 212.618 4.5918C215.017 3.76302 217.46 3.02148 219.946 2.36719C222.433 1.71289 224.984 1.32031 227.602 1.18945C230.219 1.01497 232.967 1.34212 235.846 2.1709C236.02 2.69434 236.26 3.19596 236.565 3.67578C236.871 4.1556 237.176 4.63542 237.481 5.11523C237.83 5.55143 238.136 5.98763 238.397 6.42383C238.659 6.86003 238.812 7.31803 238.855 7.79785C239.379 8.27767 239.793 8.80111 240.099 9.36816C240.448 9.8916 240.513 10.6113 240.295 11.5273C239.815 11.8763 239.313 12.2253 238.79 12.5742C238.267 12.9232 237.721 13.2503 237.154 13.5557C235.191 13.0758 233.229 12.9014 231.266 13.0322C229.303 13.1631 227.536 13.3158 225.966 13.4902C225.486 12.9668 224.919 12.7269 224.265 12.7705C223.61 12.7705 222.912 12.8796 222.171 13.0977C221.473 13.2721 220.775 13.4684 220.077 13.6865C219.379 13.861 218.725 13.9046 218.114 13.8174C217.634 14.2536 217.002 14.5589 216.217 14.7334C215.432 14.8643 214.603 14.9733 213.73 15.0605C213.687 15.2786 213.73 15.4313 213.861 15.5186C213.992 15.6058 214.014 15.7803 213.927 16.042C214.232 16.4346 214.646 16.7181 215.17 16.8926C215.693 17.0234 216.217 17.1543 216.74 17.2852C217.307 17.416 217.809 17.6123 218.245 17.874C218.681 18.0921 218.965 18.4629 219.096 18.9863C219.881 19.0299 220.557 19.248 221.124 19.6406C221.691 19.9896 222.171 20.4258 222.563 20.9492C222.956 21.4727 223.24 22.0397 223.414 22.6504C223.589 23.2174 223.654 23.7409 223.61 24.2207C223.785 24.6569 223.959 24.8314 224.134 24.7441C224.352 24.6569 224.592 24.766 224.854 25.0713C225.028 25.7256 225.421 26.4235 226.031 27.165C226.686 27.863 227.187 28.6263 227.536 29.4551C227.623 30.7637 227.689 31.9414 227.732 32.9883C227.82 34.0352 227.645 35.0602 227.209 36.0635C226.467 37.9827 225.399 39.7057 224.003 41.2324C222.607 42.7591 221.015 44.1113 219.227 45.2891C217.482 46.4232 215.628 47.4264 213.665 48.2988C211.702 49.1276 209.761 49.8255 207.842 50.3926C207.667 50.349 207.449 50.349 207.188 50.3926C206.969 50.4362 206.926 50.3053 207.057 50C206.664 50.349 206.206 50.5671 205.683 50.6543C205.203 50.7415 204.658 50.7633 204.047 50.7197C203.48 50.7197 202.891 50.6979 202.28 50.6543C201.713 50.6107 201.146 50.6325 200.579 50.7197C200.23 50.3708 199.903 50.0218 199.598 49.6729C199.336 49.3239 199.118 48.9095 198.943 48.4297C198.725 48.3861 198.616 48.2552 198.616 48.0371C198.66 47.7754 198.573 47.6445 198.354 47.6445C198.354 47.4701 198.376 47.3392 198.42 47.252C198.464 47.1647 198.507 47.0775 198.551 46.9902C198.725 46.8594 198.791 46.7721 198.747 46.7285C198.747 46.6413 198.682 46.5758 198.551 46.5322C198.464 46.445 198.354 46.3577 198.224 46.2705C198.136 46.1833 198.115 46.0742 198.158 45.9434C198.376 45.5508 198.442 45.0928 198.354 44.5693C198.311 44.0023 198.267 43.4352 198.224 42.8682C198.18 42.3011 198.224 41.7777 198.354 41.2979C198.485 40.7744 198.856 40.3382 199.467 39.9893C201.255 40.1637 202.935 40.0765 204.505 39.7275C206.119 39.3786 207.624 38.8988 209.02 38.2881C210.459 37.6774 211.811 37.0231 213.076 36.3252C214.385 35.5837 215.65 34.9076 216.871 34.2969C217.002 33.8607 217.198 33.4899 217.46 33.1846C217.765 32.8792 218.071 32.5957 218.376 32.334C218.681 32.0286 218.965 31.7233 219.227 31.418C219.488 31.069 219.685 30.6546 219.815 30.1748C219.859 30.0003 219.859 29.8695 219.815 29.7822C219.772 29.695 219.706 29.6296 219.619 29.5859C219.532 29.4987 219.445 29.4115 219.357 29.3242C219.27 29.237 219.227 29.1061 219.227 28.9316C219.096 28.888 218.965 28.8444 218.834 28.8008C218.747 28.7572 218.66 28.7354 218.572 28.7354C217.438 28.1683 216.239 27.6885 214.974 27.2959C213.709 26.9033 212.64 26.4671 211.768 25.9873C211.244 26.3363 210.721 26.4235 210.197 26.249C209.674 26.0745 209.041 25.9001 208.3 25.7256C206.468 25.6383 204.723 25.4639 203.065 25.2021C201.451 24.9404 199.881 24.4824 198.354 23.8281C198.267 23.5664 198.158 23.3483 198.027 23.1738C197.896 22.9557 197.591 22.8903 197.111 22.9775C196.806 22.5413 196.479 22.1488 196.13 21.7998C195.825 21.4072 195.541 20.971 195.279 20.4912ZM269.542 13.1631C269.586 13.4684 269.586 13.7083 269.542 13.8828C269.542 14.0137 269.52 14.1445 269.477 14.2754C269.477 14.4062 269.477 14.5589 269.477 14.7334C269.477 14.8643 269.52 15.0824 269.607 15.3877C268.691 16.8708 267.623 17.8958 266.401 18.4629C265.224 18.9863 263.937 19.3789 262.541 19.6406C261.145 19.8587 259.706 20.0986 258.223 20.3604C256.783 20.6221 255.344 21.1891 253.904 22.0615C253.337 21.8434 252.814 21.8434 252.334 22.0615C251.898 22.2796 251.243 22.3451 250.371 22.2578C250.109 22.5195 249.782 22.7158 249.39 22.8467C248.997 22.9339 248.604 23.043 248.212 23.1738C248.386 23.5664 248.452 23.9808 248.408 24.417C248.408 24.8096 248.474 25.1367 248.604 25.3984C250.131 25.5293 251.811 25.5075 253.643 25.333C255.518 25.1585 257.35 25.0495 259.139 25.0059C259.182 25.224 259.16 25.3766 259.073 25.4639C258.986 25.5075 258.964 25.6165 259.008 25.791C259.313 26.0091 259.618 26.2926 259.924 26.6416C260.229 26.9469 260.535 27.2523 260.84 27.5576C261.145 27.863 261.451 28.1247 261.756 28.3428C262.105 28.5173 262.497 28.5827 262.934 28.5391C263.108 28.888 263.217 29.2806 263.261 29.7168C263.348 30.1094 263.304 30.5238 263.13 30.96C262.432 31.4398 261.734 31.9414 261.036 32.4648C260.338 32.9447 259.597 33.3809 258.812 33.7734C258.07 34.166 257.263 34.4932 256.391 34.7549C255.562 34.973 254.624 35.0602 253.577 35.0166C253.359 35.0166 253.185 35.0166 253.054 35.0166C252.966 35.0166 252.836 34.9512 252.661 34.8203C252.312 35.0384 251.811 35.1038 251.156 35.0166C250.546 34.9294 250.066 34.9948 249.717 35.2129C249.237 34.9948 248.648 34.9076 247.95 34.9512C247.296 34.9512 246.707 34.8639 246.184 34.6895C245.486 35.6055 244.853 36.5869 244.286 37.6338C243.719 38.6807 243.217 39.793 242.781 40.9707C244.264 41.1888 245.486 41.276 246.445 41.2324C247.449 41.1888 248.386 41.1234 249.259 41.0361C250.131 40.9053 251.025 40.7962 251.941 40.709C252.857 40.5781 254.013 40.5345 255.409 40.5781C256.282 40.0983 257.307 39.793 258.484 39.6621C259.706 39.4876 260.818 39.2259 261.821 38.877C262.17 39.0078 262.476 39.2477 262.737 39.5967C262.999 39.902 263.239 40.2074 263.457 40.5127C263.719 40.7744 263.98 41.0143 264.242 41.2324C264.504 41.4505 264.831 41.5378 265.224 41.4941C265.398 41.6686 265.507 41.8867 265.551 42.1484C265.638 42.3665 265.703 42.5846 265.747 42.8027C265.791 43.0208 265.856 43.2171 265.943 43.3916C266.074 43.5225 266.271 43.5661 266.532 43.5225C265.878 44.9619 265.115 46.0742 264.242 46.8594C263.413 47.6009 262.454 48.168 261.363 48.5605C260.273 48.9531 259.051 49.2585 257.699 49.4766C256.391 49.6947 254.929 49.9564 253.315 50.2617C252.923 50.349 252.596 50.3271 252.334 50.1963C252.072 50.109 251.767 50.0654 251.418 50.0654C250.415 50.2835 249.215 50.4798 247.819 50.6543C246.424 50.8288 245.006 50.8942 243.566 50.8506C242.127 50.807 240.753 50.6107 239.444 50.2617C238.136 49.9564 237.067 49.3893 236.238 48.5605C235.889 48.2552 235.649 47.9062 235.519 47.5137C235.431 47.0775 235.148 46.7503 234.668 46.5322C234.624 45.9652 234.537 45.3327 234.406 44.6348C234.275 43.9368 234.145 43.2171 234.014 42.4756C233.883 41.6904 233.774 40.9271 233.687 40.1855C233.643 39.444 233.687 38.7679 233.817 38.1572C233.948 37.5029 234.21 36.9141 234.603 36.3906C235.039 35.8672 235.191 35.3001 235.061 34.6895C235.279 34.6458 235.41 34.5368 235.453 34.3623C235.497 34.1442 235.671 34.057 235.977 34.1006C236.238 33.3154 236.522 32.5739 236.827 31.876C237.132 31.1781 237.438 30.502 237.743 29.8477C238.092 29.1934 238.419 28.5391 238.725 27.8848C239.074 27.1868 239.401 26.4235 239.706 25.5947C239.095 25.0277 238.637 24.417 238.332 23.7627C238.07 23.0648 237.874 22.3887 237.743 21.7344C237.612 21.0365 237.503 20.3385 237.416 19.6406C237.329 18.8991 237.176 18.1576 236.958 17.416C237.394 16.7617 237.918 16.2383 238.528 15.8457C239.183 15.4095 239.881 15.0605 240.622 14.7988C241.364 14.5371 242.171 14.319 243.043 14.1445C243.915 13.9701 244.831 13.7738 245.791 13.5557C247.536 12.9886 249.084 12.5524 250.437 12.2471C251.832 11.9417 253.185 11.7018 254.493 11.5273C255.845 11.3092 257.241 11.113 258.681 10.9385C260.12 10.764 261.756 10.5023 263.588 10.1533C263.98 10.5459 264.351 10.7422 264.7 10.7422C264.875 10.3496 265.071 10.2406 265.289 10.415C265.551 10.5459 265.66 10.415 265.616 10.0225C266.052 10.764 266.598 11.3965 267.252 11.9199C267.95 12.3997 268.713 12.8141 269.542 13.1631ZM302.584 44.5039C302.322 45.2454 301.93 46.0088 301.406 46.7939C300.926 47.5355 300.338 48.2116 299.64 48.8223C298.985 49.3893 298.244 49.8691 297.415 50.2617C296.586 50.6543 295.714 50.8724 294.798 50.916C294.231 50.7852 293.838 50.6325 293.62 50.458C293.446 50.3271 293.249 50.1963 293.031 50.0654C292.9 49.9782 292.77 49.9128 292.639 49.8691C292.551 49.7819 292.464 49.7165 292.377 49.6729L291.592 49.3457L291.854 48.4951C291.941 48.1462 291.919 47.8844 291.788 47.71C291.657 47.4919 291.396 47.2083 291.003 46.8594C290.872 46.7285 290.741 46.5977 290.61 46.4668C290.479 46.3359 290.37 46.2051 290.283 46.0742L289.171 44.8311L290.938 44.373C292.028 44.0677 292.748 43.6751 293.097 43.1953C293.489 42.7155 293.642 41.9085 293.555 40.7744C292.682 40.5999 291.941 40.5781 291.33 40.709C290.763 40.8398 290.174 40.9925 289.563 41.167C288.778 41.3851 287.971 41.5814 287.143 41.7559C286.357 41.8867 285.485 41.9521 284.525 41.9521C284.176 41.9521 283.849 41.9521 283.544 41.9521C283.239 41.9085 282.911 41.8649 282.562 41.8213L281.908 41.6904C281.821 41.2106 281.734 40.9489 281.646 40.9053C281.559 40.818 281.472 40.7308 281.385 40.6436C281.167 40.4255 280.927 40.1419 280.665 39.793C280.447 39.4004 280.403 38.9206 280.534 38.3535C280.316 37.9609 280.185 37.5684 280.142 37.1758C279.88 37.6992 279.684 38.2445 279.553 38.8115L279.291 39.4658L278.637 39.5967C278.549 39.6403 278.484 39.7493 278.44 39.9238C278.397 40.0547 278.375 40.1637 278.375 40.251L278.048 41.3633C277.961 41.4505 277.873 41.5378 277.786 41.625C277.699 41.6686 277.612 41.734 277.524 41.8213C277.437 42.2139 277.328 42.6064 277.197 42.999C277.066 43.3916 276.936 43.7624 276.805 44.1113C276.587 44.6784 276.39 45.2454 276.216 45.8125C276.085 46.3359 276.041 46.8594 276.085 47.3828L275.823 48.1025C275.605 48.3643 275.365 48.5824 275.104 48.7568C274.842 48.8877 274.58 49.0186 274.318 49.1494C274.231 49.2367 274.1 49.3239 273.926 49.4111C273.795 49.4548 273.686 49.4984 273.599 49.542L273.402 50.2617L272.617 50.3926C272.137 50.4798 271.788 50.5452 271.57 50.5889C271.396 50.6325 271.178 50.6543 270.916 50.6543L270.262 50.5889C269.782 50.1963 269.411 49.891 269.149 49.6729C268.888 49.4111 268.582 49.1712 268.233 48.9531C267.841 48.4297 267.623 48.0371 267.579 47.7754C267.535 47.5137 267.492 47.2738 267.448 47.0557C267.361 46.7939 267.317 46.5758 267.317 46.4014C267.274 46.2269 267.208 46.096 267.121 46.0088L266.271 45.2236L266.99 44.6348L267.056 43.5225C267.928 41.2979 268.844 39.1605 269.804 37.1104C270.807 35.0602 271.832 32.9665 272.879 30.8291C273.228 30.1312 273.555 29.4333 273.86 28.7354C274.209 28.0374 274.558 27.3395 274.907 26.6416C274.864 26.5107 274.842 26.3581 274.842 26.1836C274.842 26.0091 274.885 25.8128 274.973 25.5947C275.452 24.8532 275.845 24.1989 276.15 23.6318C276.456 23.0212 276.761 22.4105 277.066 21.7998C277.415 21.0583 277.764 20.3385 278.113 19.6406C278.506 18.9427 278.986 18.223 279.553 17.4814L280.6 17.0234C280.73 16.9798 280.883 16.9362 281.058 16.8926C281.232 16.8053 281.428 16.7617 281.646 16.7617L282.628 16.8926C283.849 16.3255 284.918 15.5404 285.834 14.5371C286.75 13.4902 287.688 12.2471 288.647 10.8076L289.302 9.8916L290.152 10.415C290.37 10.5459 290.676 10.6768 291.068 10.8076C291.461 10.8949 291.875 11.0039 292.312 11.1348C293.097 11.3092 293.838 11.5055 294.536 11.7236C295.234 11.9417 295.801 12.2689 296.237 12.7051C296.499 13.403 296.652 13.9264 296.695 14.2754C296.739 14.6243 296.804 14.9733 296.892 15.3223C297.022 16.0638 297.132 16.8053 297.219 17.5469C297.35 18.2884 297.437 19.1172 297.48 20.0332C297.699 20.7747 297.873 21.5163 298.004 22.2578C298.178 22.9557 298.331 23.6755 298.462 24.417C298.68 25.4639 298.898 26.4889 299.116 27.4922C299.334 28.4518 299.618 29.3678 299.967 30.2402C300.316 30.2402 300.534 30.262 300.621 30.3057C300.839 30.2184 301.057 30.153 301.275 30.1094C301.537 30.0658 301.821 30.0221 302.126 29.9785L302.846 29.9131L303.107 30.5674C303.151 30.7855 303.369 31.0036 303.762 31.2217C304.329 31.2653 304.743 31.3962 305.005 31.6143C305.267 31.7887 305.507 31.985 305.725 32.2031C305.899 32.3776 306.074 32.5085 306.248 32.5957L307.229 32.9883L306.706 33.9697C306.27 34.7549 305.637 35.5182 304.809 36.2598C304.023 36.9577 303.129 37.5465 302.126 38.0264C302.17 38.2881 302.191 38.5498 302.191 38.8115C302.235 39.0296 302.3 39.2695 302.388 39.5312C302.519 40.2728 302.628 41.0361 302.715 41.8213C302.802 42.6064 302.802 43.4134 302.715 44.2422L302.584 44.5039ZM283.675 33.1846C284.983 33.0973 286.161 33.0101 287.208 32.9229C288.299 32.792 289.498 32.5957 290.807 32.334C290.501 31.0254 290.174 29.6732 289.825 28.2773C289.476 26.8379 289.105 25.4202 288.713 24.0244L288.32 24.6787C287.448 25.5947 286.597 26.6198 285.769 27.7539C284.983 28.888 284.307 29.9567 283.74 30.96C283.479 31.3525 283.217 31.7451 282.955 32.1377C282.693 32.5303 282.453 32.9229 282.235 33.3154C282.497 33.2718 282.737 33.25 282.955 33.25C283.217 33.25 283.457 33.2282 283.675 33.1846ZM317.437 43.1953C316.957 44.9401 316.521 46.2705 316.128 47.1865C315.779 48.0589 315.234 48.9749 314.492 49.9346C313.925 49.8473 313.533 49.9128 313.314 50.1309C313.096 50.349 312.856 50.5452 312.595 50.7197C312.202 50.807 311.919 50.807 311.744 50.7197C311.57 50.6325 311.417 50.5234 311.286 50.3926C311.155 50.3053 310.981 50.1963 310.763 50.0654C310.588 49.9782 310.305 49.9346 309.912 49.9346C309.825 49.5856 309.716 49.2585 309.585 48.9531C309.498 48.6478 309.214 48.5387 308.734 48.626C308.822 48.277 308.843 47.9935 308.8 47.7754C308.756 47.5137 308.691 47.2956 308.604 47.1211C308.56 46.903 308.516 46.7067 308.473 46.5322C308.429 46.3141 308.451 46.0524 308.538 45.7471C308.32 45.7471 308.146 45.5944 308.015 45.2891C307.884 44.9837 307.731 44.6784 307.557 44.373C307.688 43.5879 307.818 42.8464 307.949 42.1484C308.08 41.4505 308.233 40.7962 308.407 40.1855C308.625 39.5749 308.8 38.9642 308.931 38.3535C309.062 37.7428 308.996 37.1104 308.734 36.4561C308.909 36.5869 309.04 36.5651 309.127 36.3906C309.214 36.1725 309.28 35.9108 309.323 35.6055C309.367 35.2565 309.389 34.9294 309.389 34.624C309.389 34.2751 309.367 33.9915 309.323 33.7734C309.759 32.6393 310.108 31.4834 310.37 30.3057C310.675 29.0843 310.937 27.8848 311.155 26.707C311.417 25.5293 311.679 24.3734 311.94 23.2393C312.202 22.1051 312.551 21.0583 312.987 20.0986C313.467 20.0114 313.991 20.0768 314.558 20.2949C315.168 20.4694 315.539 20.7093 315.67 21.0146C316.804 20.1423 317.807 19.0954 318.68 17.874C319.552 16.609 320.446 15.3877 321.362 14.21C322.278 13.0322 323.282 11.9854 324.372 11.0693C325.506 10.1533 326.924 9.60807 328.625 9.43359C329.497 10.0879 330.457 10.764 331.504 11.4619C332.594 12.1162 333.489 12.9886 334.187 14.0791C334.535 14.2536 334.819 14.4499 335.037 14.668C335.299 14.8424 335.604 15.0387 335.953 15.2568V16.042C336.477 16.5218 336.891 17.0889 337.196 17.7432C337.545 18.3538 337.851 19.0299 338.112 19.7715C338.374 20.4694 338.636 21.1891 338.897 21.9307C339.159 22.6286 339.465 23.3047 339.813 23.959C339.726 24.1771 339.683 24.3734 339.683 24.5479C339.683 24.6787 339.704 24.8314 339.748 25.0059C339.835 25.1803 339.901 25.3548 339.944 25.5293C339.988 25.7038 339.988 25.9437 339.944 26.249C339.813 28.1683 339.181 29.7168 338.047 30.8945C336.956 32.0723 335.626 33.0537 334.056 33.8389C332.485 34.5804 330.806 35.2129 329.018 35.7363C327.229 36.2598 325.615 36.8268 324.176 37.4375C324.176 37.612 324.241 37.6992 324.372 37.6992C324.547 37.6992 324.612 37.8083 324.568 38.0264C325.615 38.6807 326.444 39.2041 327.055 39.5967C327.665 39.9893 328.232 40.3164 328.756 40.5781C329.323 40.8398 329.912 41.0798 330.522 41.2979C331.177 41.4723 332.071 41.6904 333.205 41.9521C334.339 42.2139 335.212 42.432 335.822 42.6064C336.477 42.7373 337.065 42.8682 337.589 42.999C338.112 43.0863 338.636 43.1735 339.159 43.2607C339.726 43.3044 340.511 43.3698 341.515 43.457C341.907 43.8496 342.234 44.3294 342.496 44.8965C342.801 45.4199 342.998 45.9652 343.085 46.5322C343.172 47.0557 343.194 47.5791 343.15 48.1025C343.107 48.5824 342.954 48.9749 342.692 49.2803C342.736 49.4111 342.823 49.4766 342.954 49.4766C343.129 49.4329 343.303 49.4329 343.478 49.4766C343.216 49.651 342.998 49.8691 342.823 50.1309C342.649 50.3926 342.474 50.6543 342.3 50.916C342.125 51.1777 341.929 51.3958 341.711 51.5703C341.493 51.7884 341.188 51.9193 340.795 51.9629C339.443 52.4863 337.742 52.5081 335.691 52.0283C333.641 51.5921 331.046 50.7633 327.905 49.542C326.335 48.9313 325.048 48.4079 324.045 47.9717C323.085 47.4919 322.235 47.0339 321.493 46.5977C320.795 46.1178 320.141 45.6162 319.53 45.0928C318.963 44.5693 318.265 43.9368 317.437 43.1953ZM326.793 20.7529C326.313 21.4508 325.768 22.0833 325.157 22.6504C324.59 23.2174 324.023 23.8063 323.456 24.417C322.933 24.984 322.453 25.6383 322.017 26.3799C321.58 27.0778 321.275 27.9066 321.101 28.8662C322.627 28.6917 324.219 28.2773 325.877 27.623C327.535 26.9251 329.105 26.2708 330.588 25.6602C330.413 24.3079 329.934 23.2174 329.148 22.3887C328.407 21.5599 327.622 21.0146 326.793 20.7529ZM370.369 50.1309C369.671 50.1745 368.799 50.1527 367.752 50.0654C366.749 49.9782 365.811 50.1309 364.938 50.5234C362.627 50.4362 360.271 50.1527 357.872 49.6729C355.473 49.193 353.27 48.6042 351.264 47.9062C350.827 47.4264 350.391 46.9902 349.955 46.5977C349.519 46.1615 348.93 45.8561 348.188 45.6816C347.142 44.8529 346.291 43.8496 345.637 42.6719C344.982 41.4505 344.459 40.1637 344.066 38.8115C343.674 37.4593 343.412 36.0853 343.281 34.6895C343.15 33.25 343.107 31.876 343.15 30.5674C343.805 28.6045 344.721 26.9251 345.898 25.5293C347.12 24.0898 348.363 22.6722 349.628 21.2764C350.195 21.0146 350.609 20.7529 350.871 20.4912C351.176 20.1859 351.482 19.9242 351.787 19.7061C352.136 19.4443 352.463 19.2044 352.769 18.9863C353.118 18.7246 353.423 18.4193 353.685 18.0703C354.601 17.8522 355.386 17.5469 356.04 17.1543C356.738 16.7181 357.414 16.2819 358.068 15.8457C358.723 15.3659 359.399 14.9297 360.097 14.5371C360.795 14.1445 361.602 13.8392 362.518 13.6211C362.867 13.2285 363.281 12.9232 363.761 12.7051C364.241 12.4434 364.72 12.2035 365.2 11.9854C365.724 11.7236 366.203 11.4619 366.64 11.2002C367.119 10.9385 367.49 10.5895 367.752 10.1533C367.97 10.5023 368.275 10.6331 368.668 10.5459C369.061 10.415 369.431 10.2842 369.78 10.1533C369.998 10.1097 370.173 10.1533 370.304 10.2842C370.478 10.415 370.631 10.5459 370.762 10.6768C370.893 10.8076 371.002 10.8949 371.089 10.9385C371.22 10.9385 371.329 10.8294 371.416 10.6113C371.634 10.6113 371.7 10.7204 371.612 10.9385C371.525 11.1566 371.46 11.3092 371.416 11.3965C371.765 11.3529 372.049 11.4401 372.267 11.6582C372.528 11.8327 372.921 11.9417 373.444 11.9854C373.619 12.2035 373.662 12.3779 373.575 12.5088C373.488 12.596 373.444 12.7705 373.444 13.0322C374.753 13.4248 375.582 14.0573 375.931 14.9297C376.28 15.7585 376.301 16.6309 375.996 17.5469C375.691 18.4629 375.146 19.3135 374.36 20.0986C373.575 20.8838 372.725 21.4072 371.809 21.6689C369.715 22.236 367.73 22.8685 365.854 23.5664C364.022 24.2207 362.518 25.2021 361.34 26.5107C360.293 26.8161 359.355 27.2305 358.526 27.7539C357.741 28.2337 356.978 28.8008 356.236 29.4551C355.538 30.0658 354.862 30.7201 354.208 31.418C353.597 32.0723 352.943 32.7266 352.245 33.3809C352.289 33.9915 352.18 34.4714 351.918 34.8203C351.7 35.1257 351.482 35.4528 351.264 35.8018C351.351 36.4561 351.504 37.0449 351.722 37.5684C351.94 38.0482 352.18 38.528 352.441 39.0078C355.32 39.8802 358.374 40.4255 361.602 40.6436C364.873 40.8617 368.145 40.9925 371.416 41.0361C371.721 41.4723 372.07 41.8867 372.463 42.2793C372.899 42.6283 373.292 43.0208 373.641 43.457C373.99 43.8496 374.273 44.3076 374.491 44.8311C374.709 45.3109 374.753 45.9215 374.622 46.6631C374.011 47.3174 373.335 47.9281 372.594 48.4951C371.852 49.0186 371.111 49.5638 370.369 50.1309ZM411.066 43.6533C411.154 44.7874 411.023 45.7253 410.674 46.4668C410.325 47.2083 409.845 47.8408 409.234 48.3643C408.624 48.8877 407.926 49.3021 407.141 49.6074C406.355 49.9128 405.592 50.1963 404.851 50.458C404.502 50.2399 404.153 50.0218 403.804 49.8037C403.498 49.542 403.128 49.3457 402.691 49.2148C402.124 48.168 401.579 47.252 401.056 46.4668C400.532 45.638 400.292 44.7002 400.336 43.6533C400.336 43.6097 400.358 43.3698 400.401 42.9336C400.489 42.4974 400.576 42.0176 400.663 41.4941C400.794 40.9707 400.881 40.4909 400.925 40.0547C401.012 39.5749 401.056 39.3132 401.056 39.2695C400.052 39.3568 399.006 39.5749 397.915 39.9238C396.825 40.2728 395.756 40.6872 394.709 41.167C393.706 41.6468 392.746 42.1266 391.83 42.6064C390.958 43.0863 390.238 43.5007 389.671 43.8496C389.671 43.9805 389.584 44.3076 389.409 44.8311C389.235 45.3109 389.017 45.8343 388.755 46.4014C388.493 46.9248 388.21 47.4046 387.904 47.8408C387.599 48.277 387.294 48.4951 386.988 48.4951C387.032 48.626 387.097 48.7568 387.185 48.8877C387.272 49.0186 387.272 49.193 387.185 49.4111C386.574 49.5856 386.029 49.8037 385.549 50.0654C385.069 50.3708 384.567 50.6107 384.044 50.7852C383.521 51.0033 382.953 51.1123 382.343 51.1123C381.732 51.1123 381.012 50.8942 380.184 50.458C380.184 50.1963 380.075 49.9782 379.856 49.8037C379.638 49.5856 379.398 49.4111 379.137 49.2803C378.919 49.1058 378.722 48.9749 378.548 48.8877C378.373 48.7568 378.286 48.6478 378.286 48.5605C378.068 48.6042 377.981 48.4515 378.024 48.1025C378.068 47.7536 378.243 47.6663 378.548 47.8408C378.068 47.2301 377.763 46.7067 377.632 46.2705C377.545 45.7907 377.305 45.2018 376.912 44.5039C376.999 44.4167 377.087 44.264 377.174 44.0459C377.217 43.8278 377.261 43.6315 377.305 43.457C377.348 43.2826 377.414 43.1517 377.501 43.0645C377.588 42.9772 377.697 42.999 377.828 43.1299C377.741 42.7373 377.741 42.4102 377.828 42.1484C377.915 41.8867 378.003 41.6468 378.09 41.4287C378.177 41.2106 378.243 40.9925 378.286 40.7744C378.33 40.5563 378.264 40.3164 378.09 40.0547C378.788 39.0951 379.246 38.07 379.464 36.9795C379.682 35.8454 379.813 34.8203 379.856 33.9043C380.162 33.599 380.424 33.1628 380.642 32.5957C380.903 32.0286 381.1 31.4616 381.23 30.8945C381.361 30.2839 381.405 29.7168 381.361 29.1934C381.361 28.6263 381.296 28.1683 381.165 27.8193C381.209 27.6012 381.449 27.5358 381.885 27.623C382.146 26.1836 382.321 24.5697 382.408 22.7812C382.539 20.9492 382.735 19.2262 382.997 17.6123C383.259 15.9548 383.695 14.5153 384.306 13.2939C384.916 12.029 385.898 11.2002 387.25 10.8076C387.512 11.7236 387.839 12.5306 388.231 13.2285C388.668 13.9264 389.126 14.6025 389.605 15.2568C390.129 15.8675 390.631 16.5 391.11 17.1543C391.634 17.8086 392.114 18.5501 392.55 19.3789C392.506 20.2077 392.419 21.1673 392.288 22.2578C392.157 23.3483 391.983 24.4606 391.765 25.5947C391.59 26.7288 391.394 27.8193 391.176 28.8662C391.001 29.9131 390.827 30.8073 390.652 31.5488C390.696 31.7669 390.805 31.8978 390.979 31.9414C391.198 31.985 391.241 32.1813 391.11 32.5303C392.157 32.2686 393.248 32.0286 394.382 31.8105C395.516 31.5924 396.65 31.3525 397.784 31.0908C398.918 30.8291 400.009 30.5456 401.056 30.2402C402.146 29.8913 403.149 29.4769 404.065 28.9971C404.284 27.2959 404.567 25.5947 404.916 23.8936C405.265 22.1924 405.309 20.4476 405.047 18.6592C405.265 18.4847 405.439 18.2666 405.57 18.0049C405.701 17.7432 405.919 17.5687 406.225 17.4814C406.007 16.6527 405.919 15.7803 405.963 14.8643C406.007 13.9482 406.159 13.0758 406.421 12.2471C406.726 11.4183 407.141 10.7204 407.664 10.1533C408.231 9.54264 408.907 9.15007 409.692 8.97559C410.172 9.6735 410.587 10.4368 410.936 11.2656C411.285 12.0508 411.633 12.8577 411.982 13.6865C412.375 14.4717 412.768 15.235 413.16 15.9766C413.596 16.6745 414.142 17.2852 414.796 17.8086C414.927 19.0736 415.014 20.3822 415.058 21.7344C415.145 23.0866 415.21 24.4606 415.254 25.8564C414.905 27.514 414.512 29.1279 414.076 30.6982C413.684 32.2249 413.4 33.8607 413.226 35.6055C412.92 35.9544 412.68 36.347 412.506 36.7832C412.331 37.2194 412.157 37.6774 411.982 38.1572C411.808 38.5934 411.612 39.0296 411.394 39.4658C411.175 39.8584 410.914 40.2074 410.608 40.5127C410.783 41.0361 410.805 41.5378 410.674 42.0176C410.587 42.4538 410.717 42.999 411.066 43.6533Z" fill="#5B5B5B"/>
<path d="M63.66 12.145C53.9876 13.1926 46.2076 20.9446 45.1562 30.3726C43.8946 40.8483 50.413 49.8573 59.6649 52.7905V47.9717C59.6649 47.9717 58.8238 48.1812 57.7725 48.1812C54.8287 48.1812 53.567 45.6671 53.3568 44.2005C53.1465 43.3624 52.726 42.7339 52.0952 42.1053C51.4643 41.8958 51.2541 41.8958 51.2541 41.6863C51.2541 41.2673 51.8849 41.2673 52.0952 41.2673C53.3568 41.2673 54.4081 42.7339 54.8287 43.3624C55.88 45.0385 57.1416 45.4575 57.7725 45.4575C58.6135 45.4575 59.2443 45.248 59.6649 45.0385C59.8752 43.5719 60.506 42.1053 61.7676 41.2673C56.9314 40.2197 53.3568 37.4961 53.3568 32.8868C53.3568 30.5821 54.4081 28.2775 55.88 26.6014C55.6697 26.1824 55.4595 25.1348 55.4595 23.6682C55.4595 22.8302 55.4595 21.5731 56.0903 20.316C56.0903 20.316 59.0341 20.316 61.9779 23.0397C63.0292 22.6207 64.5011 22.4111 65.973 22.4111C67.4449 22.4111 68.9168 22.6207 70.1784 23.0397C72.9119 20.316 76.066 20.316 76.066 20.316C76.4865 21.5731 76.4865 22.8302 76.4865 23.6682C76.4865 25.3443 76.2762 26.1824 76.066 26.6014C77.5378 28.2775 78.5892 30.3726 78.5892 32.8868C78.5892 37.4961 75.0146 40.2197 70.1784 41.2673C71.44 42.3148 72.2811 44.2005 72.2811 46.0861V53C80.9022 50.2763 87 42.3148 87 33.0963C87 20.5255 76.2762 10.6784 63.66 12.145Z" fill="#5B5B5B"/>
</svg>
